<mxfile host="app.diagrams.net" modified="2021-02-05T16:30:04.843Z" agent="5.0 (Windows NT 10.0; Win64; x64) AppleWebKit/537.36 (KHTML, like Gecko) Chrome/88.0.4324.150 Safari/537.36" etag="XoPIvmu1DWe_LjrbjxfZ" version="14.2.9" type="github">
  <diagram id="OLYszV-28A0RT0QH3yM2" name="Page-1">
    <mxGraphModel dx="1692" dy="2478" grid="0" gridSize="10" guides="1" tooltips="1" connect="1" arrows="1" fold="1" page="1" pageScale="1" pageWidth="827" pageHeight="1169" math="0" shadow="0">
      <root>
        <mxCell id="0" />
        <mxCell id="1" parent="0" />
        <mxCell id="JuR9XKDFCgpJYqxPNHQu-77" style="edgeStyle=orthogonalEdgeStyle;rounded=0;orthogonalLoop=1;jettySize=auto;html=1;entryX=0.019;entryY=0.544;entryDx=0;entryDy=0;entryPerimeter=0;" edge="1" parent="1" source="JuR9XKDFCgpJYqxPNHQu-20" target="JuR9XKDFCgpJYqxPNHQu-29">
          <mxGeometry relative="1" as="geometry" />
        </mxCell>
        <mxCell id="JuR9XKDFCgpJYqxPNHQu-20" value="" style="rounded=0;whiteSpace=wrap;html=1;strokeColor=#000000;fillColor=none;" vertex="1" parent="1">
          <mxGeometry x="29" y="725" width="684" height="268" as="geometry" />
        </mxCell>
        <mxCell id="JuR9XKDFCgpJYqxPNHQu-1" value="&lt;h1&gt;&lt;b&gt;&lt;font style=&quot;font-size: 26px&quot;&gt;Adminpanel&lt;/font&gt;&lt;/b&gt;&lt;/h1&gt;" style="text;html=1;strokeColor=none;fillColor=none;align=center;verticalAlign=middle;whiteSpace=wrap;rounded=0;" vertex="1" parent="1">
          <mxGeometry x="347" y="18" width="40" height="20" as="geometry" />
        </mxCell>
        <mxCell id="JuR9XKDFCgpJYqxPNHQu-5" style="edgeStyle=orthogonalEdgeStyle;rounded=0;orthogonalLoop=1;jettySize=auto;html=1;exitX=0.5;exitY=1;exitDx=0;exitDy=0;" edge="1" parent="1" source="JuR9XKDFCgpJYqxPNHQu-1" target="JuR9XKDFCgpJYqxPNHQu-1">
          <mxGeometry relative="1" as="geometry" />
        </mxCell>
        <mxCell id="JuR9XKDFCgpJYqxPNHQu-10" value="" style="group;strokeColor=#000000;" vertex="1" connectable="0" parent="1">
          <mxGeometry x="156" y="106" width="425" height="187" as="geometry" />
        </mxCell>
        <mxCell id="JuR9XKDFCgpJYqxPNHQu-6" value="Superadmin" style="rounded=0;whiteSpace=wrap;html=1;" vertex="1" parent="JuR9XKDFCgpJYqxPNHQu-10">
          <mxGeometry y="125" width="99" height="62" as="geometry" />
        </mxCell>
        <mxCell id="JuR9XKDFCgpJYqxPNHQu-7" value="Users" style="rounded=0;whiteSpace=wrap;html=1;fillColor=#dae8fc;" vertex="1" parent="JuR9XKDFCgpJYqxPNHQu-10">
          <mxGeometry x="119.5" width="183" height="60" as="geometry" />
        </mxCell>
        <mxCell id="JuR9XKDFCgpJYqxPNHQu-8" value="Admin" style="rounded=0;whiteSpace=wrap;html=1;" vertex="1" parent="JuR9XKDFCgpJYqxPNHQu-10">
          <mxGeometry x="163" y="125" width="99" height="62" as="geometry" />
        </mxCell>
        <mxCell id="JuR9XKDFCgpJYqxPNHQu-9" value="Regular-user" style="rounded=0;whiteSpace=wrap;html=1;" vertex="1" parent="JuR9XKDFCgpJYqxPNHQu-10">
          <mxGeometry x="326" y="125" width="99" height="62" as="geometry" />
        </mxCell>
        <mxCell id="JuR9XKDFCgpJYqxPNHQu-11" value="&lt;h2&gt;USER&lt;/h2&gt;" style="text;html=1;align=center;verticalAlign=middle;resizable=0;points=[];autosize=1;" vertex="1" parent="1">
          <mxGeometry x="153" y="70" width="60" height="48" as="geometry" />
        </mxCell>
        <mxCell id="JuR9XKDFCgpJYqxPNHQu-18" value="" style="group;container=0;" vertex="1" connectable="0" parent="1">
          <mxGeometry x="58" y="814" width="560" height="104" as="geometry" />
        </mxCell>
        <mxCell id="JuR9XKDFCgpJYqxPNHQu-19" value="&lt;h1&gt;2 Devices and Equipments&lt;/h1&gt;" style="text;html=1;align=center;verticalAlign=middle;resizable=0;points=[];autosize=1;" vertex="1" parent="1">
          <mxGeometry x="44" y="746" width="314" height="50" as="geometry" />
        </mxCell>
        <mxCell id="JuR9XKDFCgpJYqxPNHQu-12" value="&lt;font style=&quot;font-size: 14px&quot;&gt;Equipments&lt;/font&gt;" style="rounded=0;whiteSpace=wrap;html=1;" vertex="1" parent="1">
          <mxGeometry x="276.9998093587522" y="816" width="116.46447140381282" height="104" as="geometry" />
        </mxCell>
        <mxCell id="JuR9XKDFCgpJYqxPNHQu-13" value="&lt;b&gt;&lt;font style=&quot;font-size: 14px&quot;&gt;Devices&lt;/font&gt;&lt;/b&gt;" style="rounded=0;whiteSpace=wrap;html=1;" vertex="1" parent="1">
          <mxGeometry x="64" y="816" width="116.46447140381282" height="104" as="geometry" />
        </mxCell>
        <mxCell id="JuR9XKDFCgpJYqxPNHQu-14" value="&lt;font style=&quot;font-size: 14px&quot;&gt;Exercise&lt;/font&gt;" style="rounded=0;whiteSpace=wrap;html=1;" vertex="1" parent="1">
          <mxGeometry x="504.0355285961872" y="816" width="116.46447140381282" height="104" as="geometry" />
        </mxCell>
        <mxCell id="JuR9XKDFCgpJYqxPNHQu-15" style="edgeStyle=orthogonalEdgeStyle;rounded=0;orthogonalLoop=1;jettySize=auto;html=1;" edge="1" parent="1" source="JuR9XKDFCgpJYqxPNHQu-13" target="JuR9XKDFCgpJYqxPNHQu-12">
          <mxGeometry x="58" y="814" as="geometry" />
        </mxCell>
        <mxCell id="JuR9XKDFCgpJYqxPNHQu-16" style="edgeStyle=orthogonalEdgeStyle;rounded=0;orthogonalLoop=1;jettySize=auto;html=1;" edge="1" parent="1" source="JuR9XKDFCgpJYqxPNHQu-12" target="JuR9XKDFCgpJYqxPNHQu-14">
          <mxGeometry x="58" y="814" as="geometry" />
        </mxCell>
        <mxCell id="JuR9XKDFCgpJYqxPNHQu-79" style="edgeStyle=orthogonalEdgeStyle;rounded=0;orthogonalLoop=1;jettySize=auto;html=1;endArrow=none;endFill=0;" edge="1" parent="1" source="JuR9XKDFCgpJYqxPNHQu-21" target="JuR9XKDFCgpJYqxPNHQu-29">
          <mxGeometry relative="1" as="geometry">
            <Array as="points">
              <mxPoint x="834" y="1190" />
              <mxPoint x="834" y="951" />
            </Array>
          </mxGeometry>
        </mxCell>
        <mxCell id="JuR9XKDFCgpJYqxPNHQu-21" value="" style="rounded=0;whiteSpace=wrap;html=1;strokeColor=#000000;fillColor=none;" vertex="1" parent="1">
          <mxGeometry x="27" y="1020" width="688" height="339" as="geometry" />
        </mxCell>
        <mxCell id="JuR9XKDFCgpJYqxPNHQu-22" value="" style="group;container=0;" vertex="1" connectable="0" parent="1">
          <mxGeometry x="60.5" y="1121" width="560" height="104" as="geometry" />
        </mxCell>
        <mxCell id="JuR9XKDFCgpJYqxPNHQu-23" value="&lt;h1&gt;3 Training-programs and plans&lt;/h1&gt;" style="text;html=1;align=center;verticalAlign=middle;resizable=0;points=[];autosize=1;" vertex="1" parent="1">
          <mxGeometry x="50.5" y="1040" width="361" height="50" as="geometry" />
        </mxCell>
        <mxCell id="JuR9XKDFCgpJYqxPNHQu-29" value="&lt;h1&gt;Implement in the App&lt;/h1&gt;" style="text;html=1;align=center;verticalAlign=middle;resizable=0;points=[];autosize=1;strokeColor=#000000;fillColor=#FF3D1F;" vertex="1" parent="1">
          <mxGeometry x="922" y="920" width="253" height="50" as="geometry" />
        </mxCell>
        <mxCell id="JuR9XKDFCgpJYqxPNHQu-43" value="" style="group" vertex="1" connectable="0" parent="1">
          <mxGeometry x="38" y="1141" width="656" height="152" as="geometry" />
        </mxCell>
        <mxCell id="JuR9XKDFCgpJYqxPNHQu-36" value="&lt;div&gt;&lt;b&gt;Choosing training programs&lt;/b&gt;&lt;/div&gt;&lt;div&gt;&lt;b&gt;&lt;br&gt;&lt;/b&gt;&lt;/div&gt;&lt;div&gt;- Beginner&lt;/div&gt;&lt;div&gt;- Advanced&lt;/div&gt;&lt;div&gt;- Lose fat&lt;br&gt;- etc.&lt;/div&gt;" style="shape=step;perimeter=stepPerimeter;whiteSpace=wrap;html=1;fixedSize=1;strokeColor=#000000;fillColor=none;align=center;" vertex="1" parent="JuR9XKDFCgpJYqxPNHQu-43">
          <mxGeometry x="7" y="6.7566666666666695" width="198.70144927536234" height="131.73333333333335" as="geometry" />
        </mxCell>
        <mxCell id="JuR9XKDFCgpJYqxPNHQu-41" value="&lt;b style=&quot;text-align: left&quot;&gt;Making the training plan&lt;/b&gt;&lt;br style=&quot;text-align: left&quot;&gt;&lt;span style=&quot;text-align: left&quot;&gt;- Choosing exercises&amp;nbsp;&lt;/span&gt;&lt;br style=&quot;text-align: left&quot;&gt;&lt;span style=&quot;text-align: left&quot;&gt;- With / withou device&lt;/span&gt;&lt;br style=&quot;text-align: left&quot;&gt;&lt;span style=&quot;text-align: left&quot;&gt;- Reps, sets, pauses, other variables&lt;/span&gt;&lt;br style=&quot;text-align: left&quot;&gt;&lt;span style=&quot;text-align: left&quot;&gt;- more ?&lt;/span&gt;" style="shape=step;perimeter=stepPerimeter;whiteSpace=wrap;html=1;fixedSize=1;strokeColor=#000000;fillColor=none;align=center;" vertex="1" parent="JuR9XKDFCgpJYqxPNHQu-43">
          <mxGeometry x="452.9985507246377" y="10.13" width="198.70144927536234" height="131.73333333333335" as="geometry" />
        </mxCell>
        <mxCell id="JuR9XKDFCgpJYqxPNHQu-42" value="&lt;div&gt;&lt;b&gt;User-information&lt;/b&gt;&lt;/div&gt;&lt;div&gt;- Goal with program&lt;/div&gt;&lt;div&gt;- How often&lt;/div&gt;&lt;div&gt;- Any injuries?&amp;nbsp;&lt;br&gt;- etc.&lt;/div&gt;" style="shape=step;perimeter=stepPerimeter;whiteSpace=wrap;html=1;fixedSize=1;strokeColor=#000000;fillColor=none;align=center;" vertex="1" parent="JuR9XKDFCgpJYqxPNHQu-43">
          <mxGeometry x="234.8289855072464" y="6.755555555555556" width="198.70144927536234" height="131.73333333333335" as="geometry" />
        </mxCell>
        <mxCell id="JuR9XKDFCgpJYqxPNHQu-70" value="" style="rounded=0;whiteSpace=wrap;html=1;strokeColor=#000000;fillColor=none;" vertex="1" parent="1">
          <mxGeometry x="31" y="382" width="684" height="268" as="geometry" />
        </mxCell>
        <mxCell id="JuR9XKDFCgpJYqxPNHQu-72" value="&lt;font style=&quot;font-size: 15px&quot;&gt;&lt;b&gt;Calender&lt;/b&gt;&lt;br&gt;&lt;div style=&quot;text-align: left&quot;&gt;&lt;span&gt;- option: looking back in time&lt;/span&gt;&lt;/div&gt;&lt;div style=&quot;text-align: left&quot;&gt;&lt;span&gt;- History data&amp;nbsp;&amp;nbsp;&lt;/span&gt;&lt;/div&gt;&lt;/font&gt;" style="rounded=0;whiteSpace=wrap;html=1;" vertex="1" parent="1">
          <mxGeometry x="72" y="476" width="169" height="116" as="geometry" />
        </mxCell>
        <mxCell id="JuR9XKDFCgpJYqxPNHQu-75" value="&lt;h1 style=&quot;font-family: &amp;#34;helvetica&amp;#34;&quot;&gt;1-History and analysis of training data&lt;/h1&gt;" style="text;html=1;align=center;verticalAlign=middle;resizable=0;points=[];autosize=1;" vertex="1" parent="1">
          <mxGeometry x="38" y="386" width="445" height="50" as="geometry" />
        </mxCell>
        <mxCell id="JuR9XKDFCgpJYqxPNHQu-76" value="&lt;font&gt;&lt;span style=&quot;font-size: 17px&quot;&gt;&lt;b&gt;Progression&lt;/b&gt;&lt;/span&gt;&lt;b style=&quot;font-size: 17px&quot;&gt;&amp;nbsp;data&lt;/b&gt;&lt;br&gt;&lt;span style=&quot;font-size: 17px&quot;&gt;-&amp;nbsp; V&lt;/span&gt;&lt;font style=&quot;font-size: 15px&quot;&gt;isualazation of data ( Circle bars and more fancy visulazation)&lt;/font&gt;&lt;br&gt;&lt;/font&gt;" style="rounded=0;whiteSpace=wrap;html=1;" vertex="1" parent="1">
          <mxGeometry x="266" y="476" width="161" height="114" as="geometry" />
        </mxCell>
        <mxCell id="JuR9XKDFCgpJYqxPNHQu-81" style="edgeStyle=orthogonalEdgeStyle;rounded=0;orthogonalLoop=1;jettySize=auto;html=1;endArrow=classic;endFill=1;" edge="1" parent="1" source="JuR9XKDFCgpJYqxPNHQu-80" target="JuR9XKDFCgpJYqxPNHQu-70">
          <mxGeometry relative="1" as="geometry" />
        </mxCell>
        <mxCell id="JuR9XKDFCgpJYqxPNHQu-80" value="&lt;h1&gt;&lt;font color=&quot;#f5f5f5&quot;&gt;Data from Cloud&lt;/font&gt;&lt;/h1&gt;" style="text;html=1;align=center;verticalAlign=middle;resizable=0;points=[];autosize=1;strokeColor=#000000;fillColor=#0810FF;" vertex="1" parent="1">
          <mxGeometry x="884" y="495" width="197" height="50" as="geometry" />
        </mxCell>
        <mxCell id="JuR9XKDFCgpJYqxPNHQu-83" style="edgeStyle=orthogonalEdgeStyle;rounded=0;orthogonalLoop=1;jettySize=auto;html=1;entryX=1;entryY=0.25;entryDx=0;entryDy=0;startArrow=classic;startFill=1;endArrow=classic;endFill=1;" edge="1" parent="1" source="JuR9XKDFCgpJYqxPNHQu-82" target="JuR9XKDFCgpJYqxPNHQu-20">
          <mxGeometry relative="1" as="geometry" />
        </mxCell>
        <mxCell id="JuR9XKDFCgpJYqxPNHQu-82" value="&lt;h1&gt;&lt;font color=&quot;#fafafa&quot;&gt;Data from Cloud&lt;/font&gt;&lt;/h1&gt;" style="text;html=1;align=center;verticalAlign=middle;resizable=0;points=[];autosize=1;strokeColor=#000000;fillColor=#0810FF;" vertex="1" parent="1">
          <mxGeometry x="887" y="764" width="197" height="50" as="geometry" />
        </mxCell>
        <mxCell id="JuR9XKDFCgpJYqxPNHQu-89" value="&lt;h1&gt;&lt;b&gt;&lt;font style=&quot;font-size: 26px&quot;&gt;Superadmin&lt;/font&gt;&lt;/b&gt;&lt;/h1&gt;" style="text;html=1;strokeColor=none;fillColor=none;align=center;verticalAlign=middle;whiteSpace=wrap;rounded=0;" vertex="1" parent="1">
          <mxGeometry x="1768" y="56" width="40" height="20" as="geometry" />
        </mxCell>
        <mxCell id="JuR9XKDFCgpJYqxPNHQu-91" value="&lt;b&gt;&lt;font style=&quot;font-size: 14px&quot;&gt;Devices&lt;/font&gt;&lt;/b&gt;" style="rounded=0;whiteSpace=wrap;html=1;" vertex="1" parent="1">
          <mxGeometry x="1709" y="345" width="290" height="145" as="geometry" />
        </mxCell>
        <mxCell id="JuR9XKDFCgpJYqxPNHQu-92" value="&lt;h1&gt;Superadmin Rights&lt;/h1&gt;&lt;p&gt;&lt;ol style=&quot;font-size: 20px&quot;&gt;&lt;li&gt;&quot;Root&quot;-user&lt;/li&gt;&lt;li&gt;Able to create / add / delete users and change: password, username, e-mail etc.&lt;/li&gt;&lt;li&gt;&lt;br&gt;&lt;/li&gt;&lt;/ol&gt;&lt;/p&gt;" style="text;html=1;strokeColor=none;fillColor=none;spacing=5;spacingTop=-20;whiteSpace=wrap;overflow=hidden;rounded=0;" vertex="1" parent="1">
          <mxGeometry x="1703" y="182" width="346" height="120" as="geometry" />
        </mxCell>
      </root>
    </mxGraphModel>
  </diagram>
</mxfile>
